<svg width="45" height="50" viewBox="0 0 80 80" fill="none" xmlns="http://www.w3.org/2000/svg">
<path d="M22.3055 30.1006L38.0555 38.5615C38.5847 38.845 39.2693 38.9794 39.9581 38.9794C40.6469 38.9794 41.3315 38.845 41.8607 38.5615L57.6107 30.1006C58.6376 29.5483 59.6078 27.4 57.7241 27.4H22.1942C20.3105 27.4 21.2807 29.5483 22.3055 30.1006ZM58.0874 34.7269L41.8607 43.1836C41.1467 43.5574 40.6469 43.6015 39.9581 43.6015C39.2693 43.6015 38.7695 43.5574 38.0555 43.1836C37.3415 42.8098 23.0762 35.3317 21.9107 34.7248C21.0917 34.2964 21.1001 34.7983 21.1001 35.1847V50.5C21.1001 51.382 22.2887 52.6 23.2001 52.6H56.8001C57.7115 52.6 58.9001 51.382 58.9001 50.5V35.1868C58.9001 34.8004 58.9085 34.2985 58.0874 34.7269Z" fill="#BB7A3B"/>
<!-- <rect x="2" y="2" width="76" height="76" stroke="#B8B8B8" stroke-width="4"/> -->
</svg>
