<svg width="80" height="80" viewBox="0 0 80 80" fill="none" xmlns="http://www.w3.org/2000/svg">
<path d="M47.2061 43.3056C47.3383 42.2148 47.4374 41.124 47.4374 40.0001C47.4374 38.8762 47.3383 37.7853 47.2061 36.6945H52.7924C53.0569 37.7523 53.2222 38.8597 53.2222 40.0001C53.2222 41.1405 53.0569 42.2478 52.7924 43.3056H47.2061ZM44.2806 52.4951C45.2723 50.6605 46.0326 48.6772 46.5615 46.6112H51.4372C49.8359 49.3685 47.2955 51.4571 44.2806 52.4951ZM43.8674 43.3056H36.1324C35.9672 42.2148 35.868 41.124 35.868 40.0001C35.868 38.8762 35.9672 37.7688 36.1324 36.6945H43.8674C44.0162 37.7688 44.1319 38.8762 44.1319 40.0001C44.1319 41.124 44.0162 42.2148 43.8674 43.3056ZM39.9999 53.1562C38.6281 51.1728 37.5208 48.9747 36.8431 46.6112H43.1568C42.4791 48.9747 41.3718 51.1728 39.9999 53.1562ZM33.3888 33.389H28.5627C30.1475 30.6242 32.6861 28.5322 35.7027 27.5051C34.7111 29.3397 33.9673 31.323 33.3888 33.389ZM28.5627 46.6112H33.3888C33.9673 48.6772 34.7111 50.6605 35.7027 52.4951C32.6924 51.4566 30.1574 49.3675 28.5627 46.6112ZM27.2074 43.3056C26.943 42.2478 26.7777 41.1405 26.7777 40.0001C26.7777 38.8597 26.943 37.7523 27.2074 36.6945H32.7938C32.6616 37.7853 32.5624 38.8762 32.5624 40.0001C32.5624 41.124 32.6616 42.2148 32.7938 43.3056H27.2074ZM39.9999 26.8274C41.3718 28.8108 42.4791 31.0255 43.1568 33.389H36.8431C37.5208 31.0255 38.6281 28.8108 39.9999 26.8274ZM51.4372 33.389H46.5615C46.0442 31.3419 45.2782 29.3659 44.2806 27.5051C47.3218 28.5463 49.8505 30.6453 51.4372 33.389ZM39.9999 23.4723C30.8601 23.4723 23.4722 30.9098 23.4722 40.0001C23.4722 44.3835 25.2135 48.5874 28.313 51.687C29.8478 53.2217 31.6698 54.4391 33.675 55.2697C35.6803 56.1003 37.8295 56.5278 39.9999 56.5278C44.3834 56.5278 48.5873 54.7865 51.6869 51.687C54.7864 48.5874 56.5277 44.3835 56.5277 40.0001C56.5277 37.8296 56.1002 35.6804 55.2696 33.6752C54.439 31.6699 53.2216 29.8479 51.6869 28.3132C50.1521 26.7784 48.3301 25.561 46.3249 24.7304C44.3196 23.8998 42.1704 23.4723 39.9999 23.4723Z" fill="#BB7A3B"/>
<rect x="2" y="2" width="76" height="76" stroke="#B8B8B8" stroke-width="4"/>
</svg>
