<svg width="45" height="50" viewBox="0 0 80 80" fill="none" xmlns="http://www.w3.org/2000/svg">
<path d="M55.6667 39.9145H59.8333C59.8333 29.227 51.7646 21.1666 41.0625 21.1666V25.3333C49.525 25.3333 55.6667 31.4645 55.6667 39.9145Z" fill="#BB7A3B"/>
<path d="M41.0834 33.6667C45.4647 33.6667 47.3334 35.5355 47.3334 39.9167H51.5001C51.5001 33.198 47.8022 29.5001 41.0834 29.5001V33.6667ZM48.2126 45.0063C47.8123 44.6425 47.2862 44.4484 46.7455 44.4651C46.2048 44.4818 45.6918 44.708 45.3147 45.0959L40.3293 50.223C39.1293 49.9938 36.7168 49.2417 34.2334 46.7646C31.7501 44.2792 30.998 41.8605 30.7751 40.6688L35.898 35.6813C36.2864 35.3045 36.5129 34.7913 36.5296 34.2505C36.5463 33.7096 36.3519 33.1835 35.9876 32.7834L28.2897 24.3188C27.9252 23.9175 27.4186 23.674 26.8775 23.6402C26.3364 23.6063 25.8034 23.7848 25.3918 24.1376L20.8709 28.0146C20.5107 28.3761 20.2958 28.8572 20.2668 29.3667C20.2355 29.8875 19.6397 42.225 29.2063 51.7959C37.5522 60.1396 48.0063 60.75 50.8855 60.75C51.3063 60.75 51.5647 60.7375 51.6334 60.7334C52.1428 60.7049 52.6237 60.4889 52.9834 60.1271L56.8584 55.6042C57.2115 55.1928 57.3903 54.66 57.3568 54.1189C57.3234 53.5778 57.0803 53.0711 56.6793 52.7063L48.2126 45.0063Z" fill="#BB7A3B"/>
<!-- <rect x="2" y="2" width="76" height="76" stroke="#B8B8B8" stroke-width="4"/> -->
</svg>
